<svg xmlns="http://www.w3.org/2000/svg" xmlns:xlink="http://www.w3.org/1999/xlink" preserveAspectRatio="xMidYMid" width="83" height="13" viewBox="0 0 83 13">
  <defs>
    <style>
      .cls-1 {
        fill: #efefef;
      }

      .cls-1, .cls-2 {
        fill-rule: evenodd;
      }

      .cls-2 {
        fill: #ffb311;
      }
    </style>
  </defs>
  <path d="M76.494,-0.015 L78.022,4.971 L82.995,4.961 L78.966,8.032 L80.512,13.012 L76.494,9.924 L72.476,13.012 L74.022,8.032 L69.993,4.961 L74.966,4.971 L76.494,-0.015 Z" class="cls-1"/>
  <path d="M76.494,9.924 L72.476,13.012 L74.022,8.032 L69.993,4.961 L74.966,4.971 L76.494,-0.015 " class="cls-2"/>
  <path d="M59.494,-0.015 L61.022,4.971 L65.995,4.961 L61.966,8.032 L63.512,13.012 L59.494,9.924 L55.476,13.012 L57.022,8.032 L52.993,4.961 L57.966,4.971 L59.494,-0.015 Z" class="cls-2"/>
  <path d="M41.494,-0.015 L43.022,4.971 L47.995,4.961 L43.966,8.032 L45.512,13.012 L41.494,9.924 L37.476,13.012 L39.022,8.032 L34.993,4.961 L39.966,4.971 L41.494,-0.015 Z" class="cls-2"/>
  <path d="M24.494,-0.015 L26.022,4.971 L30.995,4.961 L26.966,8.032 L28.512,13.012 L24.494,9.924 L20.476,13.012 L22.022,8.032 L17.993,4.961 L22.966,4.971 L24.494,-0.015 Z" class="cls-2"/>
  <path d="M6.494,-0.015 L8.022,4.971 L12.995,4.961 L8.966,8.032 L10.512,13.012 L6.494,9.924 L2.476,13.012 L4.022,8.032 L-0.007,4.961 L4.966,4.971 L6.494,-0.015 Z" class="cls-2"/>
</svg>
