<?xml version="1.0" encoding="utf-8"?>
<!-- Generator: Adobe Illustrator 22.1.0, SVG Export Plug-In . SVG Version: 6.00 Build 0)  -->
<svg version="1.1" id="Icon" xmlns="http://www.w3.org/2000/svg" xmlns:xlink="http://www.w3.org/1999/xlink" x="0px" y="0px"
	 viewBox="0 0 95 76" style="enable-background:new 0 0 95 76;" xml:space="preserve">
<style type="text/css">
	.st0{fill:#612DF7;}
</style>
<path class="st0" d="M85.5,10H65V9.5C65,4.3,60.7,0,55.5,0h-16C34.3,0,30,4.3,30,9.5V10H9.5C4.3,10,0,14.3,0,19.5v33
	c0,1.8,1.3,3.2,3,3.4v10.6c0,5.2,4.3,9.5,9.5,9.5h70c5.2,0,9.5-4.3,9.5-9.5V55.9c1.7-0.2,3-1.7,3-3.4v-33C95,14.3,90.7,10,85.5,10z
	 M33,9.5C33,5.9,35.9,3,39.5,3h16C59.1,3,62,5.9,62,9.5V10H33V9.5z M82.5,73h-70C8.9,73,6,70.1,6,66.5V56h31c0,2.8,2.2,5,5,5h11
	c2.8,0,5-2.2,5-5h31v10.5C89,70.1,86.1,73,82.5,73z M40,56V38h15v18c0,1.1-0.9,2-2,2H42C40.9,58,40,57.1,40,56z M92,52.5
	c0,0.3-0.2,0.5-0.5,0.5H58V35H37v18H3.5C3.2,53,3,52.8,3,52.5v-33C3,15.9,5.9,13,9.5,13h76c3.6,0,6.5,2.9,6.5,6.5V52.5z"/>
<circle class="st0" cx="47.5" cy="51.5" r="2"/>
</svg>
