<?xml version="1.0" encoding="utf-8"?>
<!-- Generator: Adobe Illustrator 22.1.0, SVG Export Plug-In . SVG Version: 6.00 Build 0)  -->
<svg version="1.1" id="Layer_1" xmlns="http://www.w3.org/2000/svg" xmlns:xlink="http://www.w3.org/1999/xlink" x="0px" y="0px"
	 viewBox="0 0 36 33" width="36" height="33" style="enable-background:new 0 0 36 33;" xml:space="preserve">
<style type="text/css">
	.st0{fill:#FFFFFF;}
</style>
<path class="st0" d="M18.1,26.5c4.2-8.3,4.2-18.2,0-26.5C14,8.3,14,18.2,18.1,26.5z"/>
<path class="st0" d="M16.7,26.2c-1.2-3.6-3.3-6.8-5.9-9.5c-2.7-2.7-6-4.7-9.6-5.9c1.2,3.6,3.3,6.8,5.9,9.4C9.9,23,13.1,25,16.7,26.2
	L16.7,26.2z"/>
<path class="st0" d="M16.2,27.2c-2.2-1.1-4.6-1.6-7.1-1.6c-2.5,0-4.9,0.6-7.1,1.7c2.2,1.1,4.6,1.6,7.1,1.6
	C11.6,28.9,14,28.3,16.2,27.2L16.2,27.2z"/>
<path class="st0" d="M34.2,27.2c-2.2-1.1-4.6-1.6-7.1-1.6c-2.5,0-4.9,0.6-7.1,1.7c2.2,1.1,4.6,1.6,7.1,1.6
	C29.6,28.9,32,28.3,34.2,27.2L34.2,27.2z"/>
<path class="st0" d="M16.2,28.1c-2.3,0.8-4.1,2.6-4.9,4.9c1.1-0.4,2.2-1,3-1.9C15.2,30.3,15.8,29.3,16.2,28.1L16.2,28.1z"/>
<path class="st0" d="M19.8,28.1c2.3,0.8,4.1,2.6,4.9,4.9c-1.1-0.4-2.2-1-3-1.9C20.9,30.3,20.2,29.3,19.8,28.1L19.8,28.1z"/>
<path class="st0" d="M19.4,26.2c1.2-3.6,3.3-6.8,5.9-9.5c2.7-2.7,6-4.7,9.6-5.9c-1.2,3.6-3.3,6.8-5.9,9.4C26.2,23,23,25,19.4,26.2
	L19.4,26.2z"/>
</svg>
