<?xml version="1.0" encoding="UTF-8" standalone="no"?><!DOCTYPE svg PUBLIC "-//W3C//DTD SVG 1.1//EN" "http://www.w3.org/Graphics/SVG/1.1/DTD/svg11.dtd"><svg width="35" height="32" viewBox="0 0 35 32" version="1.1" xmlns="http://www.w3.org/2000/svg" xmlns:xlink="http://www.w3.org/1999/xlink" xml:space="preserve" xmlns:serif="http://www.serif.com/" style="fill-rule:evenodd;clip-rule:evenodd;stroke-linejoin:round;stroke-miterlimit:1.41421;"><path id="CannCode" d="M15.617,27.268c-1.073,0.36 -2.08,0.965 -2.935,1.814c-0.854,0.851 -1.463,1.853 -1.825,2.919c1.072,-0.36 2.08,-0.965 2.935,-1.815c0.855,-0.85 1.462,-1.852 1.825,-2.918Zm3.492,0c1.073,0.36 2.08,0.965 2.935,1.814c0.854,0.851 1.463,1.853 1.825,2.919c-1.072,-0.36 -2.08,-0.965 -2.934,-1.815c-0.855,-0.85 -1.463,-1.852 -1.826,-2.918Zm-3.485,-1.076c-2.355,-1.159 -5.007,-1.811 -7.812,-1.811c-2.806,0 -5.458,0.652 -7.813,1.811c2.355,1.159 5.007,1.811 7.813,1.811c2.805,0 5.457,-0.652 7.812,-1.811Zm3.419,0c2.355,-1.159 5.007,-1.811 7.812,-1.811c2.806,0 5.457,0.652 7.812,1.811c-2.355,1.159 -5.006,1.811 -7.812,1.811c-2.805,0 -5.457,-0.652 -7.812,-1.811Zm-1.569,-0.471c1.93,-3.877 3.016,-8.243 3.016,-12.861c0,-4.619 -1.086,-8.984 -3.016,-12.861c-1.929,3.877 -3.015,8.242 -3.015,12.861c0,4.618 1.086,8.984 3.015,12.861Zm-1.348,-0.315c-1.137,-3.347 -3.046,-6.491 -5.727,-9.159c-2.683,-2.667 -5.845,-4.564 -9.21,-5.695c1.137,3.347 3.045,6.492 5.727,9.159c2.682,2.667 5.844,4.564 9.21,5.695Zm2.519,0c1.137,-3.347 3.045,-6.491 5.727,-9.159c2.683,-2.667 5.844,-4.564 9.21,-5.695c-1.137,3.347 -3.045,6.492 -5.727,9.159c-2.682,2.667 -5.844,4.564 -9.21,5.695Z" style="fill:#14e191;"/></svg>