<?xml version="1.0" encoding="UTF-8" standalone="no"?><!DOCTYPE svg PUBLIC "-//W3C//DTD SVG 1.1//EN" "http://www.w3.org/Graphics/SVG/1.1/DTD/svg11.dtd"><svg width="100%" height="100%" viewBox="0 0 74 37" version="1.1" xmlns="http://www.w3.org/2000/svg" xmlns:xlink="http://www.w3.org/1999/xlink" xml:space="preserve" xmlns:serif="http://www.serif.com/" style="fill-rule:evenodd;clip-rule:evenodd;stroke-linejoin:round;stroke-miterlimit:1.41421;"><g id="Real-badge" serif:id="Real badge"><path id="Rounded-Rectangle-3" serif:id="Rounded Rectangle 3" d="M68.064,0l0.019,0.001l0.02,0l0.019,0.001l0.019,0.001l0.02,0.002l0.019,0.001l0.019,0.002l0.019,0.002l0.019,0.002l0.019,0.003l0.019,0.003l0.019,0.003l0.019,0.003l0.018,0.003l0.019,0.004l0.019,0.004l0.018,0.004l0.019,0.004l0.018,0.005l0.019,0.005l0.018,0.005l0.018,0.005l0.019,0.005l0.018,0.006l0.018,0.006l0.018,0.006l0.018,0.006l0.017,0.007l0.018,0.007l0.018,0.007l0.017,0.007l0.017,0.007l0.018,0.008l0.017,0.007l0.017,0.008l0.017,0.008l0.017,0.009l0.017,0.008l0.017,0.009l0.016,0.009l0.017,0.009l0.016,0.01l0.016,0.009l0.017,0.01l0.016,0.01l0.016,0.01l0.015,0.01l0.016,0.011l0.016,0.011l0.015,0.01l0.015,0.011l0.016,0.012l0.015,0.011l0.015,0.012l0.014,0.012l0.015,0.012l0.015,0.012l0.014,0.012l0.014,0.013l0.014,0.012l0.014,0.013l0.014,0.013l0.014,0.014l0.013,0.013l0.013,0.014l0.014,0.013l0.013,0.014l0.013,0.014l0.012,0.015l0.013,0.014l0.012,0.015l0.012,0.014l0.012,0.015l0.012,0.015l0.012,0.015l0.011,0.016l0.012,0.015l0.011,0.016l0.011,0.016l0.011,0.016l0.01,0.016l0.011,0.016l0.01,0.017l0.01,0.017l0.01,0.016l0.009,0.017l0.01,0.017l0.009,0.018l0.009,0.017l0.009,0.017l0.009,0.018l0.008,0.018l0.009,0.018l0.008,0.018l0.007,0.018l0.008,0.018l0.007,0.019l0.008,0.018l0.007,0.019l0.006,0.019l0.007,0.019l0.006,0.019l0.006,0.019l0.006,0.02l0.006,0.019l0.005,0.02l4.071,15.23l0.005,0.02l0.005,0.019l0.005,0.02l0.004,0.02l0.004,0.02l0.004,0.019l0.004,0.02l0.003,0.02l0.003,0.02l0.003,0.019l0.002,0.02l0.003,0.02l0.002,0.019l0.001,0.02l0.002,0.02l0.001,0.019l0.001,0.02l0.001,0.019l0.001,0.02l0,0.019l0,0.02l0,0.019l0,0.02l-0.001,0.019l-0.001,0.02l-0.001,0.019l-0.002,0.019l-0.001,0.019l-0.002,0.02l-0.002,0.019l-0.002,0.019l-0.003,0.019l-0.003,0.019l-0.003,0.019l-0.003,0.019l-0.003,0.018l-0.004,0.019l-0.004,0.019l-0.004,0.019l-0.004,0.018l-0.005,0.019l-0.005,0.018l-0.005,0.018l-0.005,0.019l-0.005,0.018l-0.006,0.018l-0.006,0.018l-0.006,0.018l-0.006,0.018l-0.007,0.018l-0.006,0.018l-0.007,0.017l-0.007,0.018l-0.008,0.017l-0.007,0.018l-0.008,0.017l-0.008,0.017l-0.008,0.017l-0.008,0.017l-0.009,0.017l-0.009,0.017l-0.009,0.016l-0.009,0.017l-0.009,0.016l-0.01,0.017l-0.009,0.016l-0.01,0.016l-0.01,0.016l-0.011,0.016l-0.01,0.016l-0.011,0.015l-0.011,0.016l-0.011,0.015l-0.011,0.015l-0.011,0.015l-0.012,0.015l-0.012,0.015l-0.012,0.015l-0.012,0.014l-0.012,0.015l-0.013,0.014l-0.012,0.014l-0.013,0.014l-0.013,0.014l-0.013,0.014l-0.014,0.013l-0.013,0.014l-0.014,0.013l-0.014,0.013l-0.014,0.013l-0.014,0.012l-0.015,0.013l-0.014,0.012l-0.015,0.013l-0.015,0.012l-0.015,0.012l-0.015,0.011l-0.015,0.012l-0.016,0.011l-0.015,0.011l-0.016,0.011l-0.016,0.011l-0.016,0.011l-0.017,0.01l-0.016,0.011l-0.017,0.01l-0.016,0.009l-0.017,0.01l-0.017,0.01l-0.017,0.009l-0.018,0.009l-0.017,0.009l-0.018,0.009l-0.018,0.008l-0.017,0.008l-0.018,0.008l-0.019,0.008l-0.018,0.008l-0.018,0.007l-0.019,0.008l-0.019,0.007l-0.018,0.006l-0.019,0.007l-0.019,0.006l-0.02,0.006l-0.019,0.006l-0.019,0.006l-0.02,0.005l-66.471,17.854l-0.019,0.005l-0.02,0.005l-0.02,0.004l-0.019,0.005l-0.02,0.004l-0.02,0.004l-0.019,0.003l-0.02,0.004l-0.02,0.003l-0.019,0.003l-0.02,0.002l-0.02,0.002l-0.019,0.002l-0.02,0.002l-0.02,0.002l-0.019,0.001l-0.02,0.001l-0.019,0.001l-0.02,0.001l-0.019,0l-0.02,0l-0.019,0l-0.019,-0.001l-0.02,0l-0.019,-0.001l-0.019,-0.001l-0.02,-0.002l-0.019,-0.001l-0.019,-0.002l-0.019,-0.002l-0.019,-0.002l-0.019,-0.003l-0.019,-0.003l-0.019,-0.003l-0.019,-0.003l-0.018,-0.003l-0.019,-0.004l-0.019,-0.004l-0.018,-0.004l-0.019,-0.004l-0.018,-0.005l-0.019,-0.005l-0.018,-0.005l-0.018,-0.005l-0.019,-0.006l-0.018,-0.005l-0.018,-0.006l-0.018,-0.006l-0.017,-0.006l-0.018,-0.007l-0.018,-0.007l-0.018,-0.007l-0.017,-0.007l-0.017,-0.007l-0.018,-0.008l-0.017,-0.007l-0.017,-0.008l-0.017,-0.009l-0.017,-0.008l-0.017,-0.008l-0.017,-0.009l-0.016,-0.009l-0.017,-0.009l-0.016,-0.01l-0.016,-0.009l-0.017,-0.01l-0.016,-0.01l-0.016,-0.01l-0.015,-0.01l-0.016,-0.011l-0.016,-0.011l-0.015,-0.011l-0.015,-0.011l-0.016,-0.011l-0.015,-0.011l-0.015,-0.012l-0.014,-0.012l-0.015,-0.012l-0.015,-0.012l-0.014,-0.012l-0.014,-0.013l-0.014,-0.012l-0.014,-0.013l-0.014,-0.013l-0.014,-0.014l-0.013,-0.013l-0.013,-0.014l-0.014,-0.013l-0.013,-0.014l-0.013,-0.014l-0.012,-0.015l-0.013,-0.014l-0.012,-0.015l-0.012,-0.014l-0.012,-0.015l-0.012,-0.015l-0.012,-0.016l-0.011,-0.015l-0.012,-0.015l-0.011,-0.016l-0.011,-0.016l-0.011,-0.016l-0.01,-0.016l-0.011,-0.017l-0.01,-0.016l-0.01,-0.017l-0.01,-0.016l-0.01,-0.017l-0.009,-0.017l-0.009,-0.018l-0.009,-0.017l-0.009,-0.017l-0.009,-0.018l-0.008,-0.018l-0.009,-0.018l-0.008,-0.018l-0.007,-0.018l-0.008,-0.018l-0.007,-0.019l-0.008,-0.018l-0.007,-0.019l-0.006,-0.019l-0.007,-0.019l-0.006,-0.019l-0.006,-0.02l-0.006,-0.019l-0.006,-0.019l-0.005,-0.02l-4.071,-15.23l-0.005,-0.02l-0.005,-0.02l-0.005,-0.019l-0.004,-0.02l-0.004,-0.02l-0.004,-0.019l-0.004,-0.02l-0.003,-0.02l-0.003,-0.02l-0.003,-0.019l-0.002,-0.02l-0.003,-0.02l-0.002,-0.019l-0.001,-0.02l-0.002,-0.02l-0.001,-0.019l-0.001,-0.02l-0.001,-0.019l-0.001,-0.02l0,-0.02l0,-0.019l0,-0.019l0,-0.02l0.001,-0.019l0.001,-0.02l0.001,-0.019l0.002,-0.019l0.001,-0.019l0.002,-0.02l0.002,-0.019l0.002,-0.019l0.003,-0.019l0.003,-0.019l0.003,-0.019l0.003,-0.019l0.003,-0.019l0.004,-0.018l0.004,-0.019l0.004,-0.019l0.004,-0.018l0.005,-0.019l0.005,-0.018l0.005,-0.019l0.005,-0.018l0.005,-0.018l0.006,-0.018l0.006,-0.018l0.006,-0.018l0.006,-0.018l0.007,-0.018l0.006,-0.018l0.007,-0.017l0.007,-0.018l0.008,-0.017l0.007,-0.018l0.008,-0.017l0.008,-0.017l0.008,-0.017l0.008,-0.017l0.009,-0.017l0.009,-0.017l0.009,-0.017l0.009,-0.016l0.009,-0.017l0.01,-0.016l0.009,-0.016l0.01,-0.016l0.01,-0.016l0.011,-0.016l0.01,-0.016l0.011,-0.015l0.011,-0.016l0.011,-0.015l0.011,-0.015l0.011,-0.015l0.012,-0.015l0.012,-0.015l0.012,-0.015l0.012,-0.014l0.012,-0.015l0.013,-0.014l0.012,-0.014l0.013,-0.014l0.013,-0.014l0.013,-0.014l0.014,-0.013l0.013,-0.014l0.014,-0.013l0.014,-0.013l0.014,-0.013l0.014,-0.012l0.015,-0.013l0.014,-0.012l0.015,-0.013l0.015,-0.012l0.015,-0.012l0.015,-0.011l0.015,-0.012l0.016,-0.011l0.015,-0.011l0.016,-0.011l0.016,-0.011l0.016,-0.011l0.017,-0.01l0.016,-0.011l0.017,-0.01l0.016,-0.01l0.017,-0.009l0.017,-0.01l0.017,-0.009l0.018,-0.009l0.017,-0.009l0.018,-0.009l0.018,-0.008l0.017,-0.008l0.018,-0.008l0.019,-0.008l0.018,-0.008l0.018,-0.007l0.019,-0.008l0.019,-0.007l0.018,-0.006l0.019,-0.007l0.02,-0.006l0.019,-0.006l0.019,-0.006l0.02,-0.006l0.019,-0.005l66.471,-17.854l0.019,-0.005l0.02,-0.005l0.02,-0.005l0.019,-0.004l0.02,-0.004l0.02,-0.004l0.019,-0.003l0.02,-0.004l0.02,-0.003l0.019,-0.003l0.02,-0.002l0.02,-0.002l0.019,-0.003l0.02,-0.001l0.02,-0.002l0.019,-0.001l0.02,-0.001l0.019,-0.001l0.02,-0.001l0.019,0l0.02,0l0.019,0Zm-0.034,0.48l-0.013,0l-0.014,0.001l-0.013,0l-0.014,0.001l-0.014,0.001l-0.013,0.001l-0.014,0.001l-0.013,0.002l-0.014,0.001l-0.014,0.002l-0.013,0.002l-0.014,0.002l-0.014,0.002l-0.013,0.003l-0.014,0.003l-0.014,0.002l-0.013,0.003l-0.014,0.004l-0.014,0.003l-0.015,0.004l-66.468,17.853l-0.015,0.004l-0.014,0.004l-0.013,0.004l-0.014,0.004l-0.013,0.005l-0.013,0.004l-0.013,0.005l-0.013,0.005l-0.013,0.005l-0.013,0.005l-0.013,0.005l-0.012,0.006l-0.013,0.005l-0.012,0.006l-0.012,0.006l-0.013,0.006l-0.012,0.006l-0.012,0.007l-0.012,0.006l-0.011,0.007l-0.012,0.006l-0.012,0.007l-0.011,0.007l-0.012,0.007l-0.011,0.007l-0.011,0.008l-0.011,0.007l-0.011,0.008l-0.011,0.008l-0.011,0.008l-0.01,0.008l-0.011,0.008l-0.01,0.008l-0.01,0.008l-0.011,0.009l-0.01,0.008l-0.01,0.009l-0.01,0.009l-0.009,0.009l-0.01,0.009l-0.01,0.009l-0.009,0.009l-0.009,0.01l-0.009,0.009l-0.009,0.01l-0.009,0.01l-0.009,0.009l-0.009,0.01l-0.008,0.01l-0.009,0.01l-0.008,0.011l-0.009,0.01l-0.008,0.01l-0.008,0.011l-0.007,0.011l-0.008,0.01l-0.008,0.011l-0.007,0.011l-0.007,0.011l-0.008,0.011l-0.007,0.011l-0.007,0.011l-0.006,0.012l-0.007,0.011l-0.007,0.012l-0.006,0.011l-0.006,0.012l-0.006,0.011l-0.006,0.012l-0.006,0.012l-0.006,0.012l-0.005,0.012l-0.006,0.012l-0.005,0.012l-0.005,0.012l-0.005,0.012l-0.005,0.013l-0.004,0.012l-0.005,0.013l-0.004,0.012l-0.005,0.013l-0.004,0.012l-0.004,0.013l-0.003,0.012l-0.004,0.013l-0.004,0.013l-0.003,0.013l-0.003,0.013l-0.003,0.013l-0.003,0.013l-0.003,0.013l-0.002,0.013l-0.003,0.013l-0.002,0.013l-0.002,0.013l-0.002,0.013l-0.001,0.013l-0.002,0.014l-0.002,0.013l-0.001,0.013l-0.001,0.014l-0.001,0.013l-0.001,0.013l0,0.014l-0.001,0.013l0,0.014l0,0.013l0,0.014l0,0.013l0.001,0.014l0,0.013l0.001,0.014l0.001,0.014l0.001,0.013l0.001,0.014l0.002,0.014l0.001,0.013l0.002,0.014l0.002,0.014l0.002,0.014l0.002,0.013l0.003,0.014l0.002,0.014l0.003,0.014l0.003,0.013l0.004,0.014l0.003,0.014l0.004,0.015l4.07,15.227l0.004,0.016l0.004,0.013l0.004,0.014l0.005,0.014l0.004,0.013l0.005,0.013l0.004,0.013l0.005,0.013l0.005,0.013l0.005,0.013l0.006,0.013l0.005,0.013l0.006,0.012l0.005,0.013l0.006,0.012l0.006,0.012l0.007,0.012l0.006,0.012l0.006,0.012l0.007,0.012l0.007,0.012l0.006,0.012l0.007,0.011l0.007,0.012l0.008,0.011l0.007,0.011l0.007,0.011l0.008,0.011l0.008,0.011l0.008,0.011l0.008,0.011l0.008,0.01l0.008,0.011l0.008,0.01l0.009,0.01l0.008,0.01l0.009,0.01l0.009,0.01l0.009,0.01l0.009,0.01l0.009,0.009l0.009,0.01l0.01,0.009l0.009,0.009l0.01,0.009l0.009,0.009l0.01,0.009l0.01,0.009l0.01,0.008l0.01,0.009l0.01,0.008l0.011,0.008l0.01,0.008l0.011,0.008l0.01,0.008l0.011,0.008l0.011,0.007l0.01,0.008l0.011,0.007l0.011,0.007l0.011,0.007l0.012,0.007l0.011,0.007l0.011,0.007l0.012,0.006l0.011,0.007l0.012,0.006l0.011,0.006l0.012,0.006l0.012,0.006l0.012,0.006l0.012,0.005l0.012,0.006l0.012,0.005l0.012,0.005l0.012,0.005l0.012,0.005l0.013,0.004l0.012,0.005l0.012,0.004l0.013,0.004l0.012,0.005l0.013,0.003l0.012,0.004l0.013,0.004l0.013,0.003l0.013,0.004l0.012,0.003l0.013,0.003l0.013,0.003l0.013,0.002l0.013,0.003l0.013,0.002l0.013,0.003l0.013,0.002l0.013,0.002l0.013,0.001l0.014,0.002l0.013,0.001l0.013,0.002l0.013,0.001l0.014,0.001l0.013,0l0.013,0.001l0.014,0.001l0.013,0l0.014,0l0.013,0l0.014,0l0.013,-0.001l0.014,0l0.013,-0.001l0.014,-0.001l0.013,-0.001l0.014,-0.001l0.013,-0.002l0.014,-0.001l0.014,-0.002l0.013,-0.002l0.014,-0.002l0.014,-0.002l0.013,-0.003l0.014,-0.003l0.014,-0.002l0.014,-0.004l0.013,-0.003l0.014,-0.003l0.015,-0.004l66.468,-17.853l0.015,-0.004l0.014,-0.004l0.013,-0.004l0.014,-0.005l0.013,-0.004l0.013,-0.005l0.013,-0.004l0.013,-0.005l0.013,-0.005l0.013,-0.005l0.013,-0.006l0.012,-0.005l0.013,-0.006l0.012,-0.005l0.013,-0.006l0.012,-0.006l0.012,-0.006l0.012,-0.007l0.012,-0.006l0.011,-0.007l0.012,-0.006l0.012,-0.007l0.011,-0.007l0.012,-0.007l0.011,-0.008l0.011,-0.007l0.011,-0.007l0.011,-0.008l0.011,-0.008l0.011,-0.008l0.01,-0.008l0.011,-0.008l0.01,-0.008l0.011,-0.008l0.01,-0.009l0.01,-0.008l0.01,-0.009l0.01,-0.009l0.009,-0.009l0.01,-0.009l0.01,-0.009l0.009,-0.009l0.009,-0.01l0.009,-0.009l0.009,-0.01l0.009,-0.01l0.009,-0.009l0.009,-0.01l0.009,-0.01l0.008,-0.011l0.008,-0.01l0.009,-0.01l0.008,-0.011l0.008,-0.01l0.007,-0.011l0.008,-0.01l0.008,-0.011l0.007,-0.011l0.007,-0.011l0.008,-0.011l0.007,-0.011l0.007,-0.011l0.006,-0.012l0.007,-0.011l0.007,-0.012l0.006,-0.011l0.006,-0.012l0.006,-0.011l0.006,-0.012l0.006,-0.012l0.006,-0.012l0.005,-0.012l0.006,-0.012l0.005,-0.012l0.005,-0.012l0.005,-0.013l0.005,-0.012l0.005,-0.012l0.004,-0.013l0.004,-0.012l0.005,-0.013l0.004,-0.012l0.004,-0.013l0.003,-0.013l0.004,-0.012l0.004,-0.013l0.003,-0.013l0.003,-0.013l0.003,-0.013l0.003,-0.013l0.003,-0.013l0.002,-0.013l0.003,-0.013l0.002,-0.013l0.002,-0.013l0.002,-0.013l0.001,-0.013l0.002,-0.014l0.002,-0.013l0.001,-0.013l0.001,-0.014l0.001,-0.013l0.001,-0.013l0,-0.014l0.001,-0.013l0,-0.014l0,-0.013l0,-0.014l0,-0.013l-0.001,-0.014l0,-0.013l-0.001,-0.014l-0.001,-0.014l-0.001,-0.013l-0.001,-0.014l-0.002,-0.014l-0.001,-0.013l-0.002,-0.014l-0.002,-0.014l-0.002,-0.014l-0.002,-0.013l-0.003,-0.014l-0.002,-0.014l-0.003,-0.014l-0.003,-0.014l-0.004,-0.013l-0.003,-0.014l-0.004,-0.016l-4.07,-15.227l-0.004,-0.015l-0.004,-0.014l-0.004,-0.013l-0.005,-0.014l-0.004,-0.013l-0.005,-0.013l-0.004,-0.013l-0.005,-0.013l-0.005,-0.013l-0.005,-0.013l-0.006,-0.013l-0.005,-0.013l-0.006,-0.012l-0.006,-0.013l-0.005,-0.012l-0.006,-0.012l-0.007,-0.013l-0.006,-0.012l-0.006,-0.011l-0.007,-0.012l-0.007,-0.012l-0.006,-0.012l-0.007,-0.011l-0.007,-0.012l-0.008,-0.011l-0.007,-0.011l-0.007,-0.011l-0.008,-0.011l-0.008,-0.011l-0.008,-0.011l-0.008,-0.011l-0.008,-0.01l-0.008,-0.011l-0.008,-0.01l-0.009,-0.01l-0.008,-0.01l-0.009,-0.01l-0.009,-0.01l-0.009,-0.01l-0.009,-0.01l-0.009,-0.009l-0.009,-0.01l-0.01,-0.009l-0.009,-0.009l-0.01,-0.009l-0.009,-0.009l-0.01,-0.009l-0.01,-0.009l-0.01,-0.008l-0.01,-0.009l-0.01,-0.008l-0.011,-0.008l-0.01,-0.008l-0.011,-0.008l-0.01,-0.008l-0.011,-0.008l-0.011,-0.008l-0.01,-0.007l-0.011,-0.007l-0.011,-0.008l-0.011,-0.007l-0.012,-0.006l-0.011,-0.007l-0.011,-0.007l-0.012,-0.006l-0.011,-0.007l-0.012,-0.006l-0.011,-0.006l-0.012,-0.006l-0.012,-0.006l-0.012,-0.006l-0.012,-0.005l-0.012,-0.006l-0.012,-0.005l-0.012,-0.005l-0.012,-0.005l-0.012,-0.005l-0.013,-0.004l-0.012,-0.005l-0.012,-0.004l-0.013,-0.005l-0.012,-0.004l-0.013,-0.004l-0.012,-0.003l-0.013,-0.004l-0.013,-0.003l-0.013,-0.004l-0.012,-0.003l-0.013,-0.003l-0.013,-0.003l-0.013,-0.003l-0.013,-0.002l-0.013,-0.002l-0.013,-0.003l-0.013,-0.002l-0.013,-0.002l-0.013,-0.001l-0.014,-0.002l-0.013,-0.001l-0.013,-0.002l-0.013,-0.001l-0.014,-0.001l-0.013,-0.001l-0.013,0l-0.014,-0.001l-0.013,0l-0.014,0l-0.013,0Z" style="fill:#11574d;"/><path id="Shape-6" serif:id="Shape 6" d="M61.467,15.383c-0.316,0.209 -0.59,0.491 -0.793,0.838c-0.203,0.347 -0.314,0.722 -0.339,1.096c0.315,-0.209 0.589,-0.49 0.792,-0.838c0.203,-0.347 0.314,-0.722 0.34,-1.096Zm-0.091,-0.346c-0.86,-0.168 -1.773,-0.147 -2.68,0.096c-0.907,0.244 -1.708,0.684 -2.37,1.261c0.861,0.167 1.774,0.147 2.681,-0.097c0.907,-0.243 1.708,-0.683 2.369,-1.26Zm1.219,0.043c0.378,0.023 0.756,0.13 1.105,0.328c0.349,0.199 0.632,0.468 0.84,0.78c-0.377,-0.023 -0.755,-0.13 -1.104,-0.329c-0.349,-0.199 -0.632,-0.468 -0.841,-0.779Zm-0.114,-0.34c0.662,-0.577 1.463,-1.016 2.37,-1.26c0.907,-0.243 1.82,-0.264 2.681,-0.096c-0.662,0.577 -1.463,1.016 -2.37,1.26c-0.907,0.244 -1.82,0.264 -2.681,0.096Zm-1.01,0.001c-0.655,-0.976 -1.542,-1.821 -2.638,-2.445c-1.095,-0.624 -2.281,-0.959 -3.465,-1.03c0.655,0.976 1.541,1.821 2.637,2.445c1.096,0.624 2.281,0.959 3.466,1.03Zm0.463,-0.016c0.291,-1.413 0.267,-2.91 -0.13,-4.393c-0.396,-1.484 -1.122,-2.792 -2.079,-3.87c-0.29,1.413 -0.266,2.909 0.13,4.393c0.397,1.484 1.123,2.792 2.079,3.87Zm0.352,-0.203c0.08,-1.174 0.426,-2.349 1.064,-3.439c0.638,-1.09 1.497,-1.974 2.488,-2.629c-0.08,1.173 -0.427,2.349 -1.065,3.439c-0.638,1.09 -1.497,1.974 -2.487,2.629Z" style="fill:#11574d;"/><path id="Rounded-Rectangle-31" serif:id="Rounded Rectangle 3" d="M48.071,5.308l0.38,-0.102l4.885,18.276l-0.379,0.102l-4.886,-18.276Z" style="fill:#11574d;"/><g id="Cannabis-businesses." serif:id="Cannabis businesses." transform="matrix(0.228061,-0.0612564,0.0611088,0.228612,29.2775,17.2499)"><text x="0px" y="0px" style="font-family:'Roboto-Regular', 'Roboto';font-size:14px;fill:#11574d;">Cannabis</text><text x="0px" y="20px" style="font-family:'Roboto-Regular', 'Roboto';font-size:14px;fill:#11574d;">businesses.</text></g><path id="Rounded-Rectangle-32" serif:id="Rounded Rectangle 3" d="M3.51,32.784l48.429,-13.007l0.102,0.38l-48.429,13.008l-0.102,-0.381Z" style="fill:#11574d;"/><path id="Rounded-Rectangle-33" serif:id="Rounded Rectangle 3" d="M23.762,11.838l0.38,-0.102l3.867,14.468l-0.379,0.102l-3.868,-14.468Z" style="fill:#11574d;"/><g id="_........................................." serif:id="........................................." transform="matrix(0.965769,-0.259402,0.258237,0.966082,-8.44454,3.23224)"><text x="8.045px" y="33.767px" style="font-family:'Roboto-Bold', 'Roboto';font-weight:700;font-size:2.759px;fill:#11574d;">.<tspan x="9.079px 10.113px 11.147px 12.181px 13.214px 14.248px 15.282px 16.316px 17.35px 18.384px 19.418px 20.451px 21.485px 22.519px 23.553px 24.587px 25.621px 26.654px 27.688px 28.722px 29.756px 30.79px 31.824px 32.858px 33.891px 34.925px 35.959px 36.993px 38.027px 39.061px 40.095px 41.128px 42.162px 43.196px 44.23px 45.264px 46.298px 47.331px 48.365px 49.399px " y="33.767px 33.767px 33.767px 33.767px 33.767px 33.767px 33.767px 33.767px 33.767px 33.767px 33.767px 33.767px 33.767px 33.767px 33.767px 33.767px 33.767px 33.767px 33.767px 33.767px 33.767px 33.767px 33.767px 33.767px 33.767px 33.767px 33.767px 33.767px 33.767px 33.767px 33.767px 33.767px 33.767px 33.767px 33.767px 33.767px 33.767px 33.767px 33.767px 33.767px ">........................................</tspan></text></g><g id="percent-real" serif:id="percent real" transform="matrix(0.965769,-0.259402,0.258237,0.966082,-7.25904,2.7408)"><text x="6.773px" y="29.008px" style="font-family:'Roboto-Regular', 'Roboto';font-size:2.759px;fill:#11574d;">p<tspan x="8.538px 10.217px 11.343px 13.004px 14.683px 16.422px 17.542px 18.444px 19.57px 21.249px 22.966px " y="29.008px 29.008px 29.008px 29.008px 29.008px 29.008px 29.008px 29.008px 29.008px 29.008px 29.008px ">ercent real</tspan></text></g><g id="_100" serif:id="100" transform="matrix(0.965769,-0.259402,0.258237,0.966082,-5.53654,4.47047)"><text x="5.347px" y="23.32px" style="font-family:'GTSectraFine-Regular', 'GT Sectra Fine';font-size:10.853px;fill:#11574d;">1<tspan x="10.329px 16.784px " y="23.32px 23.32px ">00</tspan></text></g></g></svg>