<?xml version="1.0" encoding="utf-8"?>
<!-- Generator: Adobe Illustrator 22.1.0, SVG Export Plug-In . SVG Version: 6.00 Build 0)  -->
<svg version="1.1" id="Icon" xmlns="http://www.w3.org/2000/svg" xmlns:xlink="http://www.w3.org/1999/xlink" x="0px" y="0px"
	 viewBox="0 0 93 76" style="enable-background:new 0 0 93 76;" xml:space="preserve">
<style type="text/css">
	.st0{fill:#612DF7;}
</style>
<g>
	<path class="st0" d="M88,54V5.5c0-3-2.5-5.5-5.5-5.5h-73C6.5,0,4,2.5,4,5.5v48.7c-2.3,0.7-4,2.8-4,5.3V61c0,2.8,2.2,5,5,5h17.5
		L21,74.2c-0.1,0.4,0,0.9,0.3,1.2c0.3,0.3,0.7,0.5,1.2,0.5h3c0.5,0,1.1-0.3,1.3-0.8l5-9.2h29.3l5,9.2c0.3,0.5,0.8,0.8,1.3,0.8h3
		c0.4,0,0.9-0.2,1.2-0.5s0.4-0.8,0.3-1.2L70.5,66h17c3,0,5.5-2.5,5.5-5.5v-1C93,56.6,90.8,54.3,88,54z M7,5.5C7,4.1,8.1,3,9.5,3h73
		C83.9,3,85,4.1,85,5.5V54H7V5.5z M24.6,73h-0.3l1.3-7h2.9L24.6,73z M68.7,73h-0.3l-3.8-7h2.9L68.7,73z M90,60.5
		c0,1.4-1.1,2.5-2.5,2.5H68.7c0,0,0,0,0,0H5c-1.1,0-2-0.9-2-2v-1.5C3,58.1,4.1,57,5.5,57h82c1.4,0,2.5,1.1,2.5,2.5V60.5z"/>
	<path class="st0" d="M66.5,15h-5c-3,0-5.5,2.5-5.5,5.5V44c0,2.8,2.2,5,5,5h5.5c3,0,5.5-2.5,5.5-5.5v-23C72,17.5,69.5,15,66.5,15z
		 M69,43.5c0,1.4-1.1,2.5-2.5,2.5H61c-1.1,0-2-0.9-2-2V20.5c0-1.4,1.1-2.5,2.5-2.5h5c1.4,0,2.5,1.1,2.5,2.5V43.5z"/>
	<path class="st0" d="M52.5,8h-10C41.7,8,41,8.7,41,9.5s0.7,1.5,1.5,1.5h6.3l-6.4,5.6l-6-4.3c-0.5-0.4-1.3-0.4-1.8,0l-10,8
		c-0.6,0.5-0.8,1.5-0.2,2.1c0.3,0.4,0.7,0.6,1.2,0.6c0.3,0,0.7-0.1,0.9-0.3l9.1-7.3l6.1,4.3c0.6,0.4,1.3,0.4,1.9-0.1l7.5-6.6v5.4
		c0,0.8,0.7,1.5,1.5,1.5s1.5-0.7,1.5-1.5v-9C54,8.7,53.3,8,52.5,8z"/>
	<path class="st0" d="M48.5,25h-5c-3,0-5.5,2.5-5.5,5.5V44c0,2.8,2.2,5,5,5h5.5c3,0,5.5-2.5,5.5-5.5v-13C54,27.5,51.5,25,48.5,25z
		 M51,43.5c0,1.4-1.1,2.5-2.5,2.5H43c-1.1,0-2-0.9-2-2V30.5c0-1.4,1.1-2.5,2.5-2.5h5c1.4,0,2.5,1.1,2.5,2.5V43.5z"/>
	<path class="st0" d="M30.5,30h-5c-3,0-5.5,2.5-5.5,5.5V44c0,2.8,2.2,5,5,5h5.5c3,0,5.5-2.5,5.5-5.5v-8C36,32.5,33.5,30,30.5,30z
		 M33,43.5c0,1.4-1.1,2.5-2.5,2.5H25c-1.1,0-2-0.9-2-2v-8.5c0-1.4,1.1-2.5,2.5-2.5h5c1.4,0,2.5,1.1,2.5,2.5V43.5z"/>
</g>
</svg>
