<?xml version="1.0" encoding="utf-8"?>
<!-- Generator: Adobe Illustrator 22.1.0, SVG Export Plug-In . SVG Version: 6.00 Build 0)  -->
<svg version="1.1" id="Icon" xmlns="http://www.w3.org/2000/svg" xmlns:xlink="http://www.w3.org/1999/xlink" x="0px" y="0px"
	 viewBox="0 0 100.9 113" style="enable-background:new 0 0 100.9 113;" xml:space="preserve">
<style type="text/css">
	.st0{fill:#612DF7;}
</style>
<g>
	<path class="st0" d="M96.9,55.8V43.5c0-6.2-4.9-11.2-11-11.5V5.5c0-3-2.5-5.5-5.5-5.5h-35c-2.9,0-5.2,2.2-5.5,5h-4.5
		c-2.9,0-5.2,2.2-5.5,5h-4.5c-2.9,0-5.2,2.2-5.5,5h-4.5c-3,0-5.5,2.5-5.5,5.5v11.6C4.4,32.9,0,37.7,0,43.5v58
		c0,6.3,5.2,11.5,11.5,11.5h73.9c6.3,0,11.5-5.2,11.5-11.5V90.2c2.4-2.1,4-5.2,4-8.7v-17C100.9,61,99.4,57.9,96.9,55.8z M45.5,3h35
		c1.4,0,2.5,1.1,2.5,2.5V32H43V5.5C43,4.1,44.1,3,45.5,3z M35.5,8H40v24h-7V10.5C33,9.1,34.1,8,35.5,8z M25.5,13H30v19h-7V15.5
		C23,14.1,24.1,13,25.5,13z M15.5,18H20v14h-7V20.5C13,19.1,14.1,18,15.5,18z M93.9,101.5c0,4.7-3.8,8.5-8.5,8.5H11.5
		c-4.7,0-8.5-3.8-8.5-8.5v-58c0-4.7,3.8-8.5,8.5-8.5h73.9c4.7,0,8.5,3.8,8.5,8.5v10.4C92.6,53.3,91,53,89.4,53h-30
		C53.1,53,48,58.2,48,64.5v17C48,87.8,53.1,93,59.5,93h30c1.6,0,3.1-0.3,4.5-0.9V101.5z M97.9,81.5c0,4.7-3.8,8.5-8.5,8.5h-30
		c-4.7,0-8.5-3.8-8.5-8.5v-17c0-4.7,3.8-8.5,8.5-8.5h30c4.7,0,8.5,3.8,8.5,8.5V81.5z"/>
	<circle class="st0" cx="66.5" cy="72.5" r="6"/>
</g>
</svg>
