<?xml version="1.0" encoding="utf-8"?>
<!-- Generator: Adobe Illustrator 22.1.0, SVG Export Plug-In . SVG Version: 6.00 Build 0)  -->
<svg version="1.1" id="Icon" xmlns="http://www.w3.org/2000/svg" xmlns:xlink="http://www.w3.org/1999/xlink" x="0px" y="0px"
	 viewBox="0 0 115 76" style="enable-background:new 0 0 115 76;" xml:space="preserve">
<style type="text/css">
	.st0{fill:#612DF7;}
</style>
<g>
	<path class="st0" d="M111.5,62H109c0-0.1,0-0.3,0-0.4V9.1c0-5-4.3-9.1-9.5-9.1h-84C10.3,0,6,4.1,6,9.1v52.5c0,0.1,0,0.3,0,0.4H3.5
		C1.6,62,0,63.6,0,65.5v1C0,71.7,4.3,76,9.5,76h96c5.2,0,9.5-4.3,9.5-9.5v-1C115,63.6,113.4,62,111.5,62z M9,61.6V9.1
		C9,5.8,11.9,3,15.5,3h84c3.6,0,6.5,2.8,6.5,6.1v52.5c0,0.2-0.2,0.4-0.5,0.4H104c0-0.1,0-0.3,0-0.4V8.4c0-1.9-1.6-3.4-3.5-3.4h-86
		C12.6,5,11,6.5,11,8.4v53.2c0,0.1,0,0.3,0,0.4H9.5C9.2,62,9,61.8,9,61.6z M43,65h29v2c0,1.1-0.9,2-2,2H45c-1.1,0-2-0.9-2-2V65z
		 M40,62H14.5c-0.3,0-0.5-0.2-0.5-0.4V8.4C14,8.2,14.2,8,14.5,8h86c0.3,0,0.5,0.2,0.5,0.4v53.2c0,0.2-0.2,0.4-0.5,0.4H75H40z
		 M112,66.5c0,3.6-2.9,6.5-6.5,6.5h-96C5.9,73,3,70.1,3,66.5v-1C3,65.2,3.2,65,3.5,65h6h5H40v2c0,2.8,2.2,5,5,5h25c2.8,0,5-2.2,5-5
		v-2h25.5h5h6c0.3,0,0.5,0.2,0.5,0.5V66.5z"/>
	<path class="st0" d="M40.5,24h34c0.8,0,1.5-0.7,1.5-1.5S75.3,21,74.5,21h-34c-0.8,0-1.5,0.7-1.5,1.5S39.7,24,40.5,24z"/>
	<path class="st0" d="M76,32.5c0-0.8-0.7-1.5-1.5-1.5h-34c-0.8,0-1.5,0.7-1.5,1.5s0.7,1.5,1.5,1.5h34C75.3,34,76,33.3,76,32.5z"/>
	<path class="st0" d="M67.5,41h-20c-0.8,0-1.5,0.7-1.5,1.5s0.7,1.5,1.5,1.5h20c0.8,0,1.5-0.7,1.5-1.5S68.3,41,67.5,41z"/>
</g>
</svg>
