<?xml version="1.0" encoding="utf-8"?>
<!-- Generator: Adobe Illustrator 22.1.0, SVG Export Plug-In . SVG Version: 6.00 Build 0)  -->
<svg version="1.1" id="Icon" xmlns="http://www.w3.org/2000/svg" xmlns:xlink="http://www.w3.org/1999/xlink" x="0px" y="0px"
	 viewBox="0 0 20 25" style="enable-background:new 0 0 20 25;" xml:space="preserve">
<style type="text/css">
	.st0{fill:#FFFFFF;}
</style>
<g>
	<path class="st0" d="M17,9V6.9C17,3.1,13.9,0,10.1,0H9.9C6.1,0,3,3.1,3,6.9V9c-1.7,0-3,1.3-3,3v8c0,2.8,2.2,5,5,5h10
		c2.8,0,5-2.2,5-5v-8C20,10.3,18.7,9,17,9z M5,6.9C5,4.2,7.2,2,9.9,2h0.3C12.8,2,15,4.2,15,6.9V9H5V6.9z M18,20c0,1.7-1.3,3-3,3H5
		c-1.7,0-3-1.3-3-3v-8c0-0.6,0.4-1,1-1h14c0.6,0,1,0.4,1,1V20z"/>
	<path class="st0" d="M10.1,14H9.9C8.3,14,7,15.3,7,16.9v0.1C7,18.7,8.3,20,9.9,20h0.1c1.6,0,2.9-1.3,2.9-2.9v-0.1
		C13,15.3,11.7,14,10.1,14z M11,17.1c0,0.5-0.4,0.9-0.9,0.9H9.9C9.4,18,9,17.6,9,17.1v-0.1C9,16.4,9.4,16,9.9,16h0.1
		c0.5,0,0.9,0.4,0.9,0.9V17.1z"/>
</g>
</svg>
