<?xml version="1.0" encoding="UTF-8" standalone="no"?><!DOCTYPE svg PUBLIC "-//W3C//DTD SVG 1.1//EN" "http://www.w3.org/Graphics/SVG/1.1/DTD/svg11.dtd"><svg width="100%" height="100%" viewBox="0 0 70 48" version="1.1" xmlns="http://www.w3.org/2000/svg" xmlns:xlink="http://www.w3.org/1999/xlink" xml:space="preserve" xmlns:serif="http://www.serif.com/" style="fill-rule:evenodd;clip-rule:evenodd;stroke-linejoin:round;stroke-miterlimit:1.41421;"><path id="Ellipse-7" serif:id="Ellipse 7" d="M40.581,33.049c0,8.257 6.437,14.951 14.378,14.951c7.94,0 14.377,-6.694 14.377,-14.951c0,-8.257 -6.437,-14.951 -14.377,-14.951c0,0 -1.186,-6.929 7.567,-13.377l-2.27,-4.721c0,0 -20.61,7.463 -19.675,33.049Z" style="fill:#7b53ef;"/><path id="Ellipse-71" serif:id="Ellipse 7" d="M0.028,33.049c0,8.257 6.437,14.951 14.378,14.951c7.94,0 14.378,-6.694 14.378,-14.951c0,-8.257 -6.438,-14.951 -14.378,-14.951c0,0 -1.186,-6.929 7.567,-13.377l-2.27,-4.721c0,0 -20.61,7.463 -19.675,33.049Z" style="fill:#7b53ef;"/></svg>