<?xml version="1.0" encoding="UTF-8" standalone="no"?><!DOCTYPE svg PUBLIC "-//W3C//DTD SVG 1.1//EN" "http://www.w3.org/Graphics/SVG/1.1/DTD/svg11.dtd"><svg width="100%" height="100%" viewBox="0 0 555 656" version="1.1" xmlns="http://www.w3.org/2000/svg" xmlns:xlink="http://www.w3.org/1999/xlink" xml:space="preserve" xmlns:serif="http://www.serif.com/" style="fill-rule:evenodd;clip-rule:evenodd;stroke-linejoin:round;stroke-miterlimit:1.41421;"><g><path d="M169.444,483.333l-2.777,0l0,-19.444c0,-22.778 -18.889,-41.667 -41.667,-41.667l-16.667,0c-22.777,0 -41.666,18.889 -41.666,41.667l0,19.444l-2.778,0c-10.556,0 -19.445,8.889 -19.445,19.445l0,66.666c0,16.667 13.889,30.556 30.556,30.556l83.333,0c16.667,0 30.556,-13.889 30.556,-30.556l0,-66.666c0,-10.556 -8.889,-19.445 -19.445,-19.445Zm-86.111,-19.444c0,-13.889 11.111,-25 25,-25l16.667,0c13.889,0 25,11.111 25,25l0,19.444l-66.667,0l0,-19.444Zm88.889,105.555c0,7.778 -6.111,13.889 -13.889,13.889l-83.333,0c-7.778,0 -13.889,-6.111 -13.889,-13.889l0,-66.666c0,-1.667 1.111,-2.778 2.778,-2.778l105.555,0c1.667,0 2.778,1.111 2.778,2.778l0,66.666Z" style="fill:#612df7;fill-rule:nonzero;"/><path d="M116.667,522.222c-12.223,0 -22.223,10 -22.223,22.222c0,12.223 10,22.223 22.223,22.223c12.222,0 22.222,-10 22.222,-22.223c0,-12.222 -10,-22.222 -22.222,-22.222Zm0,27.778c-3.334,0 -5.556,-2.222 -5.556,-5.556c0,-3.333 2.222,-5.555 5.556,-5.555c3.333,0 5.555,2.222 5.555,5.555c0,3.334 -2.222,5.556 -5.555,5.556Z" style="fill:#612df7;fill-rule:nonzero;"/><path d="M525,0l-172.222,0c-17.222,0 -30.556,13.333 -30.556,30.556l0,19.444l-277.778,0l0,322.222l-13.888,0c-16.667,0 -30.556,13.889 -30.556,30.556l0,222.222c0,16.667 13.889,30.556 30.556,30.556l172.222,0c16.666,0 30.555,-13.889 30.555,-30.556l0,-6.667c14.445,2.223 28.334,3.889 41.111,3.889c127.223,0 230.556,-103.333 230.556,-230.555l0,-108.334l20,0c16.667,0 30.556,-13.889 30.556,-30.555l0,-222.222c0,-16.667 -13.889,-30.556 -30.556,-30.556Zm-308.333,625c0,7.778 -6.111,13.889 -13.889,13.889l-172.222,0c-7.778,0 -13.889,-6.111 -13.889,-13.889l0,-222.222c0,-7.778 6.111,-13.889 13.889,-13.889l172.222,0c7.778,0 13.889,6.111 13.889,13.889l0,222.222Zm271.666,-233.333c0,117.777 -96.111,213.889 -213.889,213.889c-12.777,0 -26.666,-1.112 -41.111,-3.889l0,-198.889c0,-16.667 -13.889,-30.556 -30.555,-30.556l-141.667,0l0,-305.555l261.111,0l0,186.111c0,16.666 13.889,30.555 30.556,30.555l135.555,0l0,108.334Zm50.556,-138.889c0,7.778 -6.111,13.889 -13.889,13.889l-172.222,0c-7.778,0 -13.889,-6.111 -13.889,-13.889l0,-222.222c0,-7.778 6.111,-13.889 13.889,-13.889l172.222,0c7.778,0 13.889,6.111 13.889,13.889l0,222.222Z" style="fill:#612df7;fill-rule:nonzero;"/><path d="M495,50l-78.333,0l-55,108.333l36.666,0l-15,82.778l137.223,-152.778l-42.778,0l17.222,-38.333Zm-11.667,55l-73.333,81.667l7.778,-45l-28.889,0l37.778,-75l42.777,0l-16.666,38.333l30.555,0Z" style="fill:#612df7;fill-rule:nonzero;"/><rect id="Rectangle-4" serif:id="Rectangle 4" x="58.181" y="319.829" width="442.813" height="17.054" style="fill:#612df7;"/><rect id="Rectangle-41" serif:id="Rectangle 4" x="267.935" y="58.333" width="17.479" height="551.415" style="fill:#612df7;"/></g></svg>