<?xml version="1.0" encoding="utf-8"?>
<!-- Generator: Adobe Illustrator 22.1.0, SVG Export Plug-In . SVG Version: 6.00 Build 0)  -->
<svg version="1.1" id="Icon" xmlns="http://www.w3.org/2000/svg" xmlns:xlink="http://www.w3.org/1999/xlink" x="0px" y="0px"
	 viewBox="0 0 99.9 118" style="enable-background:new 0 0 99.9 118;" xml:space="preserve">
<style type="text/css">
	.st0{fill:#612DF7;}
	.st1{enable-background:new    ;}
</style>
<g>
	<path class="st0" d="M50.5,101c-10.5,0-20.5-4.1-27.9-11.6S11,72,11,61.5l3,0c0,9.8,3.8,18.9,10.7,25.8c6.9,6.9,16,10.7,25.8,10.7
		L50.5,101z"/>
</g>
<g>
	<path class="st0" d="M86.9,61.5C86.9,41.4,70.6,25,50.5,25l0-3c10.5,0,20.5,4.1,27.9,11.6c7.5,7.5,11.6,17.4,11.6,27.9L86.9,61.5z"
		/>
</g>
<g id="Rounded_Rectangle_1">
	<path class="st0" d="M94.4,118h-31c-3,0-5.5-2.5-5.5-5.5v-40c0-3,2.5-5.5,5.5-5.5h31c3,0,5.5,2.5,5.5,5.5v40
		C99.9,115.5,97.5,118,94.4,118z M63.5,70c-1.4,0-2.5,1.1-2.5,2.5v40c0,1.4,1.1,2.5,2.5,2.5h31c1.4,0,2.5-1.1,2.5-2.5v-40
		c0-1.4-1.1-2.5-2.5-2.5H63.5z"/>
</g>
<g class="st1">
	<path class="st0" d="M85.6,101.4H74.1v-2l5.7-6.2c0.8-0.9,1.4-1.7,1.8-2.3s0.5-1.2,0.5-1.8c0-0.8-0.2-1.5-0.7-2s-1.1-0.8-1.8-0.8
		c-0.9,0-1.6,0.3-2.1,0.8s-0.8,1.3-0.8,2.3h-2.8c0-1,0.2-2,0.7-2.8s1.1-1.5,2-1.9s1.9-0.7,3-0.7c1.7,0,3,0.4,3.9,1.2s1.4,2,1.4,3.5
		c0,0.9-0.2,1.7-0.7,2.7s-1.3,2-2.4,3.2l-4.2,4.5h7.9V101.4z"/>
</g>
<g id="Rounded_Rectangle_1-2">
	<path class="st0" d="M36.5,51h-31c-3,0-5.5-2.5-5.5-5.5v-40C0,2.5,2.5,0,5.5,0h31c3,0,5.5,2.5,5.5,5.5v40C42,48.5,39.5,51,36.5,51z
		 M5.5,3C4.1,3,3,4.1,3,5.5v40C3,46.9,4.1,48,5.5,48h31c1.4,0,2.5-1.1,2.5-2.5v-40C39,4.1,37.8,3,36.5,3H5.5z"/>
</g>
<g class="st1">
	<path class="st0" d="M23.8,34.4H21V20.6l-4.2,1.4v-2.4l6.7-2.4h0.4V34.4z"/>
</g>
</svg>
