<?xml version="1.0" encoding="utf-8"?>
<!-- Generator: Adobe Illustrator 22.1.0, SVG Export Plug-In . SVG Version: 6.00 Build 0)  -->
<svg version="1.1" id="Icon" xmlns="http://www.w3.org/2000/svg" xmlns:xlink="http://www.w3.org/1999/xlink" x="0px" y="0px"
	 viewBox="0 0 100.9 113" style="enable-background:new 0 0 100.9 113;" xml:space="preserve">
<style type="text/css">
	.st0{fill:#612DF7;}
</style>
<g>
	<rect x="54.5" y="65.5" class="st0" width="10" height="3"/>
	<rect x="65.5" y="57.5" class="st0" width="6" height="3"/>
	<rect x="54.5" y="57.5" class="st0" width="8" height="3"/>
	<rect x="41.5" y="58.5" class="st0" width="3" height="11"/>
	<rect x="31.5" y="53.5" class="st0" width="3" height="16"/>
	<rect x="21.5" y="43.5" class="st0" width="3" height="26"/>
	<rect x="11.5" y="33.5" class="st0" width="3" height="36"/>
	<path class="st0" d="M95.4,0H43.5c-3,0-5.5,2.5-5.5,5.5V20H5.5c-3,0-5.5,2.5-5.5,5.5v50c0,3,2.5,5.5,5.5,5.5H35v21H20.5
		c-3,0-5.5,2.5-5.5,5.5s2.5,5.5,5.5,5.5h50c3,0,5.5-2.5,5.5-5.5s-2.5-5.5-5.5-5.5H56V81h29.5c3,0,5.5-2.5,5.5-5.5V50h4.5
		c3,0,5.5-2.5,5.5-5.5v-39C100.9,2.5,98.5,0,95.4,0z M70.5,105c1.4,0,2.5,1.1,2.5,2.5s-1.1,2.5-2.5,2.5h-50c-1.4,0-2.5-1.1-2.5-2.5
		s1.1-2.5,2.5-2.5H35h21H70.5z M53,102H38V81h15V102z M88,75.5c0,1.4-1.1,2.5-2.5,2.5H56H35H5.5C4.1,78,3,76.9,3,75.5v-50
		C3,24.1,4.1,23,5.5,23H38v21.5c0,3,2.5,5.5,5.5,5.5H88V75.5z M97.9,44.5c0,1.4-1.1,2.5-2.5,2.5H43.5c-1.4,0-2.5-1.1-2.5-2.5v-39
		C41,4.1,42.1,3,43.5,3h51.9c1.4,0,2.5,1.1,2.5,2.5V44.5z"/>
	<path class="st0" d="M90.5,10c-4.7,0-6.9,4.4-8.9,8.4c-2,4-3.5,6.6-6.1,6.6c-3,0-3.9-0.7-4.9-1.5c-1.4-1.2-3-2.5-8.1-2.5
		C52.7,21,48.2,38.4,48,39.1c-0.2,0.8,0.3,1.6,1.1,1.8c0.1,0,0.2,0,0.4,0c0.7,0,1.3-0.5,1.5-1.1C52.1,35.5,56.3,24,62.5,24
		c4,0,5.1,0.9,6.2,1.8c1.3,1,2.7,2.2,6.8,2.2c4.6,0,6.8-4.4,8.8-8.3c2-4.1,3.6-6.7,6.2-6.7c0.8,0,1.5-0.7,1.5-1.5S91.3,10,90.5,10z"
		/>
</g>
</svg>
