<?xml version="1.0" encoding="utf-8"?>
<!-- Generator: Adobe Illustrator 22.1.0, SVG Export Plug-In . SVG Version: 6.00 Build 0)  -->
<svg version="1.1" id="Icon" xmlns="http://www.w3.org/2000/svg" xmlns:xlink="http://www.w3.org/1999/xlink" x="0px" y="0px"
	 viewBox="0 0 27 23" style="enable-background:new 0 0 27 23;" xml:space="preserve">
<style type="text/css">
	.st0{fill:#482DE8;}
</style>
<g>
	<path class="st0" d="M25,6.2V5c0-2.8-2.2-5-5-5H5C2.2,0,0,2.2,0,5v13c0,2.8,2.2,5,5,5h15c2.8,0,5-2.2,5-5v-1.2c1.2-0.4,2-1.5,2-2.8
		V9C27,7.7,26.2,6.6,25,6.2z M20,21H5c-1.7,0-3-1.3-3-3V5c0-1.7,1.3-3,3-3h15c1.7,0,3,1.3,3,3v1H13c-1.7,0-3,1.3-3,3v5
		c0,1.7,1.3,3,3,3h10v1C23,19.7,21.7,21,20,21z M25,14c0,0.6-0.4,1-1,1H13c-0.6,0-1-0.4-1-1V9c0-0.6,0.4-1,1-1h11c0.6,0,1,0.4,1,1
		V14z"/>
	<path class="st0" d="M16.5,9c-1.4,0-2.5,1.1-2.5,2.5c0,1.4,1.1,2.5,2.5,2.5s2.5-1.1,2.5-2.5C19,10.1,17.9,9,16.5,9z M16.5,12
		c-0.3,0-0.5-0.2-0.5-0.5s0.2-0.5,0.5-0.5s0.5,0.2,0.5,0.5S16.8,12,16.5,12z"/>
</g>
</svg>
